P3
64 64
255
000 000 000
000 000 000
000 000 000
000 000 000
000 000 000
000 000 000
000 000 000
000 000 000
000 000 000
000 000 000
000 000 000
000 000 000
000 000 000
000 000 000
000 000 000
000 000 000
000 000 000
000 000 000
000 000 000
000 000 000
000 000 000
000 000 000
000 000 000
000 000 000
000 000 000
000 000 000
000 000 000
000 000 000
000 000 000
000 000 000
000 000 000
000 000 000
000 000 000
000 000 000
000 000 000
000 000 000
000 000 000
000 000 000
000 000 000
000 000 000
000 000 000
000 000 000
000 000 000
000 000 000
000 000 000
000 000 000
000 000 000
000 000 000
000 000 000
000 000 000
000 000 000
000 000 000
000 000 000
000 000 000
000 000 000
000 000 000
000 000 000
000 000 000
000 000 000
000 000 000
000 000 000
000 000 000
000 000 000
000 000 000
000 000 000
000 000 000
000 000 000
000 000 000
000 000 000
000 000 000
000 000 000
000 000 000
000 000 000
000 000 000
000 000 000
000 000 000
000 000 000
000 000 000
000 000 000
000 000 000
000 000 000
000 000 000
000 000 000
000 000 000
000 000 000
000 000 000
000 000 000
000 000 000
000 000 000
000 000 000
000 000 000
000 000 000
000 000 000
000 000 000
000 000 000
000 000 000
000 000 000
000 000 000
000 000 000
000 000 000
000 000 000
000 000 000
000 000 000
000 000 000
000 000 000
000 000 000
000 000 000
000 000 000
000 000 000
000 000 000
000 000 000
000 000 000
000 000 000
000 000 000
000 000 000
000 000 000
000 000 000
000 000 000
000 000 000
000 000 000
000 000 000
000 000 000
000 000 000
000 000 000
000 000 000
000 000 000
000 000 000
000 000 000
000 000 000
000 000 000
000 000 000
000 000 000
000 000 000
000 000 000
000 000 000
000 000 000
000 000 000
000 000 000
000 000 000
000 000 000
000 000 000
000 000 000
000 000 000
000 000 000
000 000 000
000 000 000
000 000 000
000 000 000
000 000 000
000 000 000
000 000 000
000 000 000
000 000 000
000 000 000
000 000 000
000 000 000
000 000 000
000 000 000
000 000 000
000 000 000
000 000 000
000 000 000
000 000 000
000 000 000
000 000 000
000 000 000
000 000 000
000 000 000
000 000 000
000 000 000
000 000 000
000 000 000
000 000 000
000 000 000
000 000 000
000 000 000
000 000 000
000 000 000
000 000 000
000 000 000
000 000 000
000 000 000
000 000 000
000 000 000
000 000 000
000 000 000
000 000 000
000 000 000
000 000 000
000 000 000
000 000 000
000 000 000
000 000 000
000 000 000
000 000 000
000 000 000
000 000 000
000 000 000
000 000 000
000 000 000
000 000 000
000 000 000
255 255 255
255 255 255
255 255 255
255 255 255
255 255 255
000 000 000
000 000 000
000 000 000
000 000 000
000 000 000
000 000 000
000 000 000
000 000 000
000 000 000
000 000 000
000 000 000
000 000 000
000 000 000
000 000 000
000 000 000
000 000 000
000 000 000
000 000 000
000 000 000
000 000 000
000 000 000
000 000 000
000 000 000
000 000 000
000 000 000
000 000 000
000 000 000
000 000 000
000 000 000
000 000 000
000 000 000
000 000 000
000 000 000
000 000 000
000 000 000
000 000 000
000 000 000
000 000 000
000 000 000
000 000 000
000 000 000
000 000 000
000 000 000
000 000 000
000 000 000
000 000 000
000 000 000
000 000 000
000 000 000
000 000 000
000 000 000
000 000 000
000 000 000
000 000 000
000 000 000
000 000 000
000 000 000
000 000 000
000 000 000
255 255 255
255 255 255
000 000 000
000 000 000
255 255 255
000 000 000
000 000 000
000 000 000
000 000 000
000 000 000
000 000 000
000 000 000
000 000 000
000 000 000
000 000 000
000 000 000
000 000 000
000 000 000
000 000 000
000 000 000
000 000 000
000 000 000
000 000 000
000 000 000
000 000 000
000 000 000
000 000 000
000 000 000
000 000 000
000 000 000
000 000 000
000 000 000
000 000 000
000 000 000
000 000 000
000 000 000
000 000 000
000 000 000
000 000 000
000 000 000
000 000 000
000 000 000
000 000 000
000 000 000
000 000 000
000 000 000
000 000 000
000 000 000
000 000 000
000 000 000
000 000 000
000 000 000
000 000 000
000 000 000
000 000 000
000 000 000
000 000 000
000 000 000
000 000 000
000 000 000
000 000 000
000 000 000
000 000 000
000 000 000
255 255 255
255 255 255
000 000 000
255 255 255
000 000 000
000 000 000
000 000 000
000 000 000
000 000 000
000 000 000
000 000 000
000 000 000
000 000 000
000 000 000
000 000 000
000 000 000
000 000 000
000 000 000
000 000 000
000 000 000
000 000 000
000 000 000
000 000 000
000 000 000
000 000 000
000 000 000
000 000 000
000 000 000
000 000 000
000 000 000
000 000 000
000 000 000
000 000 000
000 000 000
000 000 000
000 000 000
000 000 000
000 000 000
000 000 000
000 000 000
000 000 000
000 000 000
000 000 000
000 000 000
000 000 000
000 000 000
000 000 000
000 000 000
000 000 000
000 000 000
000 000 000
000 000 000
000 000 000
000 000 000
000 000 000
000 000 000
000 000 000
000 000 000
000 000 000
000 000 000
000 000 000
000 000 000
000 000 000
000 000 000
255 255 255
000 000 000
255 255 255
255 255 255
000 000 000
000 000 000
000 000 000
000 000 000
000 000 000
000 000 000
000 000 000
000 000 000
000 000 000
000 000 000
000 000 000
000 000 000
000 000 000
000 000 000
000 000 000
000 000 000
000 000 000
000 000 000
000 000 000
000 000 000
000 000 000
000 000 000
000 000 000
000 000 000
000 000 000
000 000 000
000 000 000
000 000 000
000 000 000
000 000 000
000 000 000
000 000 000
000 000 000
000 000 000
000 000 000
000 000 000
000 000 000
000 000 000
000 000 000
000 000 000
000 000 000
000 000 000
000 000 000
000 000 000
000 000 000
000 000 000
000 000 000
000 000 000
000 000 000
000 000 000
000 000 000
000 000 000
000 000 000
000 000 000
000 000 000
000 000 000
000 000 000
000 000 000
000 000 000
000 000 000
255 255 255
000 000 000
255 255 255
255 255 255
000 000 000
000 000 000
000 000 000
000 000 000
000 000 000
000 000 000
000 000 000
000 000 000
000 000 000
000 000 000
000 000 000
000 000 000
000 000 000
000 000 000
000 000 000
000 000 000
000 000 000
000 000 000
000 000 000
000 000 000
000 000 000
000 000 000
000 000 000
000 000 000
000 000 000
000 000 000
000 000 000
000 000 000
000 000 000
000 000 000
000 000 000
000 000 000
000 000 000
000 000 000
000 000 000
000 000 000
000 000 000
000 000 000
000 000 000
000 000 000
000 000 000
000 000 000
000 000 000
000 000 000
000 000 000
000 000 000
000 000 000
000 000 000
000 000 000
000 000 000
000 000 000
000 000 000
000 000 000
000 000 000
000 000 000
000 000 000
000 000 000
000 000 000
000 000 000
000 000 000
255 255 255
000 000 000
255 255 255
000 000 000
255 255 255
000 000 000
000 000 000
000 000 000
000 000 000
000 000 000
000 000 000
000 000 000
000 000 000
000 000 000
000 000 000
000 000 000
000 000 000
000 000 000
000 000 000
000 000 000
000 000 000
000 000 000
000 000 000
000 000 000
000 000 000
000 000 000
000 000 000
000 000 000
000 000 000
000 000 000
000 000 000
000 000 000
000 000 000
000 000 000
000 000 000
000 000 000
000 000 000
000 000 000
000 000 000
000 000 000
000 000 000
000 000 000
000 000 000
000 000 000
000 000 000
000 000 000
000 000 000
000 000 000
000 000 000
000 000 000
000 000 000
000 000 000
000 000 000
000 000 000
000 000 000
000 000 000
000 000 000
000 000 000
000 000 000
000 000 000
000 000 000
000 000 000
000 000 000
000 000 000
255 255 255
255 255 255
000 000 000
000 000 000
255 255 255
000 000 000
000 000 000
000 000 000
000 000 000
000 000 000
000 000 000
000 000 000
000 000 000
000 000 000
000 000 000
000 000 000
000 000 000
000 000 000
000 000 000
000 000 000
000 000 000
000 000 000
000 000 000
000 000 000
000 000 000
000 000 000
000 000 000
000 000 000
000 000 000
000 000 000
000 000 000
000 000 000
000 000 000
000 000 000
000 000 000
000 000 000
000 000 000
000 000 000
000 000 000
000 000 000
000 000 000
000 000 000
000 000 000
000 000 000
000 000 000
000 000 000
000 000 000
000 000 000
000 000 000
000 000 000
000 000 000
000 000 000
000 000 000
000 000 000
000 000 000
000 000 000
000 000 000
000 000 000
000 000 000
000 000 000
000 000 000
000 000 000
000 000 000
000 000 000
255 255 255
255 255 255
000 000 000
000 000 000
000 000 000
255 255 255
000 000 000
000 000 000
000 000 000
000 000 000
000 000 000
000 000 000
000 000 000
000 000 000
000 000 000
000 000 000
000 000 000
000 000 000
000 000 000
000 000 000
000 000 000
000 000 000
000 000 000
000 000 000
000 000 000
000 000 000
000 000 000
000 000 000
000 000 000
000 000 000
000 000 000
000 000 000
000 000 000
000 000 000
000 000 000
000 000 000
000 000 000
000 000 000
000 000 000
000 000 000
000 000 000
000 000 000
000 000 000
000 000 000
000 000 000
000 000 000
000 000 000
000 000 000
000 000 000
000 000 000
000 000 000
000 000 000
000 000 000
000 000 000
000 000 000
000 000 000
000 000 000
000 000 000
000 000 000
000 000 000
000 000 000
000 000 000
000 000 000
000 000 000
255 255 255
000 000 000
000 000 000
000 000 000
000 000 000
000 000 000
255 255 255
000 000 000
000 000 000
000 000 000
000 000 000
000 000 000
000 000 000
000 000 000
000 000 000
000 000 000
000 000 000
000 000 000
000 000 000
000 000 000
000 000 000
000 000 000
000 000 000
000 000 000
000 000 000
000 000 000
000 000 000
000 000 000
000 000 000
000 000 000
000 000 000
000 000 000
000 000 000
000 000 000
000 000 000
000 000 000
000 000 000
000 000 000
000 000 000
000 000 000
000 000 000
000 000 000
000 000 000
000 000 000
000 000 000
000 000 000
000 000 000
000 000 000
000 000 000
000 000 000
000 000 000
000 000 000
000 000 000
000 000 000
000 000 000
000 000 000
000 000 000
000 000 000
000 000 000
000 000 000
000 000 000
000 000 000
000 000 000
000 000 000
000 000 000
000 000 000
000 000 000
000 000 000
000 000 000
000 000 000
000 000 000
255 255 255
000 000 000
000 000 000
000 000 000
000 000 000
000 000 000
000 000 000
000 000 000
000 000 000
000 000 000
000 000 000
000 000 000
000 000 000
000 000 000
000 000 000
000 000 000
000 000 000
000 000 000
000 000 000
000 000 000
000 000 000
000 000 000
000 000 000
000 000 000
000 000 000
000 000 000
000 000 000
000 000 000
000 000 000
000 000 000
000 000 000
000 000 000
000 000 000
000 000 000
000 000 000
000 000 000
000 000 000
000 000 000
000 000 000
000 000 000
000 000 000
000 000 000
000 000 000
000 000 000
000 000 000
000 000 000
000 000 000
000 000 000
000 000 000
000 000 000
000 000 000
000 000 000
000 000 000
000 000 000
000 000 000
000 000 000
000 000 000
000 000 000
000 000 000
000 000 000
000 000 000
000 000 000
000 000 000
000 000 000
255 255 255
000 000 000
000 000 000
000 000 000
000 000 000
000 000 000
000 000 000
000 000 000
000 000 000
000 000 000
000 000 000
000 000 000
000 000 000
000 000 000
000 000 000
000 000 000
000 000 000
000 000 000
000 000 000
000 000 000
000 000 000
000 000 000
000 000 000
000 000 000
000 000 000
000 000 000
000 000 000
000 000 000
000 000 000
000 000 000
000 000 000
000 000 000
000 000 000
000 000 000
000 000 000
000 000 000
000 000 000
000 000 000
000 000 000
000 000 000
000 000 000
000 000 000
000 000 000
000 000 000
000 000 000
000 000 000
000 000 000
000 000 000
000 000 000
000 000 000
000 000 000
000 000 000
000 000 000
000 000 000
000 000 000
000 000 000
000 000 000
000 000 000
000 000 000
000 000 000
000 000 000
000 000 000
000 000 000
000 000 000
000 000 000
255 255 255
000 000 000
000 000 000
000 000 000
000 000 000
000 000 000
000 000 000
000 000 000
000 000 000
000 000 000
000 000 000
000 000 000
000 000 000
000 000 000
000 000 000
000 000 000
000 000 000
000 000 000
000 000 000
000 000 000
000 000 000
000 000 000
000 000 000
000 000 000
000 000 000
000 000 000
000 000 000
000 000 000
000 000 000
000 000 000
000 000 000
000 000 000
000 000 000
000 000 000
000 000 000
000 000 000
000 000 000
000 000 000
000 000 000
000 000 000
000 000 000
000 000 000
000 000 000
000 000 000
000 000 000
000 000 000
000 000 000
000 000 000
000 000 000
000 000 000
000 000 000
000 000 000
000 000 000
000 000 000
000 000 000
000 000 000
000 000 000
000 000 000
000 000 000
000 000 000
000 000 000
255 255 0
000 000 000
000 000 000
000 000 000
255 255 255
000 000 000
000 000 000
000 000 000
000 000 000
000 000 000
000 000 000
000 000 000
000 000 000
000 000 000
000 000 000
000 000 000
000 000 000
000 000 000
000 000 000
000 000 000
000 000 000
000 000 000
000 000 000
000 000 000
000 000 000
000 000 000
000 000 000
000 000 000
000 000 000
000 000 000
000 000 000
000 000 000
000 000 000
000 000 000
000 000 000
000 000 000
000 000 000
000 000 000
000 000 000
000 000 000
000 000 000
000 000 000
000 000 000
000 000 000
000 000 000
000 000 000
000 000 000
000 000 000
000 000 000
000 000 000
000 000 000
000 000 000
000 000 000
000 000 000
000 000 000
000 000 000
000 000 000
000 000 000
000 000 000
000 000 000
000 000 000
000 000 000
000 000 000
000 000 000
000 000 000
000 000 000
000 000 000
000 000 000
000 000 000
255 255 255
000 000 000
000 000 000
000 000 000
000 000 000
000 000 000
000 000 000
000 000 000
000 000 000
000 000 000
000 000 000
000 000 000
000 000 000
000 000 000
000 000 000
000 000 000
000 000 000
000 000 000
000 000 000
000 000 000
000 000 000
000 000 000
000 000 000
000 000 000
000 000 000
000 000 000
000 000 000
000 000 000
000 000 000
000 000 000
000 000 000
000 000 000
000 000 000
000 000 000
000 000 000
000 000 000
000 000 000
000 000 000
000 000 000
000 000 000
000 000 000
000 000 000
000 000 000
000 000 000
000 000 000
000 000 000
000 000 000
000 000 000
000 000 000
000 000 000
000 000 000
000 000 000
000 000 000
000 000 000
000 000 000
000 000 000
000 000 000
000 000 000
000 000 000
000 000 000
000 000 000
000 000 000
000 000 000
000 000 000
255 255 255
000 000 000
000 000 000
000 000 000
000 000 000
000 000 000
000 000 000
000 000 000
000 000 000
000 000 000
000 000 000
000 000 000
000 000 000
000 000 000
000 000 000
000 000 000
000 000 000
000 000 000
000 000 000
000 000 000
000 000 000
000 000 000
000 000 000
000 000 000
000 000 000
000 000 000
000 000 000
000 000 000
000 000 000
000 000 000
000 000 000
000 000 000
000 000 000
000 000 000
000 000 000
000 000 000
000 000 000
000 000 000
000 000 000
000 000 000
000 000 000
000 000 000
000 000 000
000 000 000
000 000 000
000 000 000
000 000 000
000 000 000
000 000 000
000 000 000
000 000 000
000 000 000
000 000 000
000 000 000
000 000 000
000 000 000
000 000 000
000 000 000
000 000 000
000 000 000
000 000 000
000 000 000
000 000 000
000 000 000
000 000 000
255 255 255
000 000 000
000 000 000
000 000 000
000 000 000
000 000 000
000 000 000
000 000 000
000 000 000
000 000 000
000 000 000
000 000 000
000 000 000
000 000 000
000 000 000
000 000 000
000 000 000
000 000 000
000 000 000
000 000 000
000 000 000
000 000 000
000 000 000
000 000 000
000 000 000
000 000 000
000 000 000
000 000 000
000 000 000
000 000 000
000 000 000
000 000 000
000 000 000
000 000 000
000 000 000
000 000 000
000 000 000
000 000 000
000 000 000
000 000 000
000 000 000
000 000 000
000 000 000
000 000 000
000 000 000
000 000 000
000 000 000
000 000 000
000 000 000
000 000 000
000 000 000
000 000 000
000 000 000
000 000 000
000 000 000
000 000 000
000 000 000
000 000 000
000 000 000
000 000 000
000 000 000
000 000 000
50 126 100
50 126 100
50 126 100
50 126 100
50 126 100
50 126 100
50 126 100
50 126 100
50 126 100
50 126 100
50 126 100
50 126 100
50 126 100
50 126 100
50 126 100
50 126 100
50 126 100
50 126 100
50 126 100
50 126 100
50 126 100
000 000 000
000 000 000
000 000 000
000 000 000
000 000 000
000 000 000
000 000 000
000 000 000
000 000 000
000 000 000
000 000 000
000 000 000
000 000 000
000 000 000
000 000 000
000 000 000
000 000 000
000 000 000
000 000 000
000 000 000
000 000 000
000 000 000
000 000 000
000 000 000
000 000 000
000 000 000
000 000 000
000 000 000
000 000 000
000 000 000
000 000 000
000 000 000
000 000 000
000 000 000
000 000 000
000 000 000
000 000 000
000 000 000
000 000 000
000 000 000
000 000 000
000 000 000
000 000 000
50 126 100
000 000 000
000 000 000
000 000 000
255 255 255
000 000 000
000 000 000
000 000 000
000 000 000
000 000 000
000 000 000
000 000 000
000 000 000
000 000 000
000 000 000
000 000 000
000 000 000
000 000 000
000 000 000
000 000 000
50 126 100
000 000 000
000 000 000
000 000 000
000 000 000
000 000 000
000 000 000
000 000 000
000 000 000
000 000 000
000 000 000
000 000 000
000 000 000
000 000 000
000 000 000
000 000 000
000 000 000
000 000 000
000 000 000
000 000 000
000 000 000
000 000 000
000 000 000
000 000 000
000 000 000
000 000 000
000 000 000
000 000 000
000 000 000
000 000 000
000 000 000
000 000 000
000 000 000
000 000 000
000 000 000
000 000 000
000 000 000
000 000 000
000 000 000
000 000 000
000 000 000
000 000 000
000 000 000
000 000 000
50 126 100
000 000 000
000 000 000
000 000 000
255 255 255
000 000 000
000 000 000
000 000 000
000 000 000
000 000 000
000 000 000
000 000 000
000 000 000
000 000 000
000 000 000
000 000 000
000 000 000
000 000 000
000 000 000
000 000 000
50 126 100
000 000 000
000 000 000
000 000 000
000 000 000
000 000 000
000 000 000
000 000 000
000 000 000
000 000 000
000 000 000
000 000 000
000 000 000
000 000 000
000 000 000
000 000 000
000 000 000
000 000 000
000 000 000
000 000 000
000 000 000
000 000 000
000 000 000
000 000 000
000 000 000
000 000 000
000 000 000
000 000 000
000 000 000
000 000 000
000 000 000
000 000 000
000 000 000
000 000 000
000 000 000
000 000 000
000 000 000
000 000 000
000 000 000
000 000 000
000 000 000
000 000 000
000 000 000
000 000 000
50 126 100
000 000 000
000 000 000
000 000 000
000 000 000
255 255 255
000 000 000
000 000 000
000 000 000
000 000 000
000 000 000
000 000 000
000 000 000
000 000 000
255 255 255
255 255 255
255 255 255
255 255 255
000 000 000
000 000 000
50 126 100
000 000 000
000 000 000
000 000 000
000 000 000
000 000 000
000 000 000
000 000 000
000 000 000
000 000 000
000 000 000
000 000 000
000 000 000
000 000 000
000 000 000
000 000 000
000 000 000
000 000 000
000 000 000
000 000 000
000 000 000
000 000 000
000 000 000
000 000 000
000 000 000
000 000 000
000 000 000
000 000 000
000 000 000
000 000 000
000 000 000
000 000 000
000 000 000
000 000 000
000 000 000
000 000 000
000 000 000
000 000 000
000 000 000
000 000 000
000 000 000
000 000 000
000 000 000
000 000 000
50 126 100
000 000 000
000 000 000
000 000 000
000 000 000
000 000 000
255 255 255
000 000 000
000 000 000
000 000 000
000 000 000
000 000 000
000 000 000
000 000 000
255 255 255
000 000 000
000 000 000
255 255 255
000 000 000
000 000 000
50 126 100
000 000 000
000 000 000
000 000 000
000 000 000
000 000 000
000 000 000
000 000 000
000 000 000
000 000 000
000 000 000
000 000 000
000 000 000
000 000 000
000 000 000
000 000 000
000 000 000
000 000 000
000 000 000
000 000 000
000 000 000
000 000 000
000 000 000
000 000 000
000 000 000
000 000 000
000 000 000
000 000 000
000 000 000
000 000 000
000 000 000
000 000 000
000 000 000
000 000 000
000 000 000
000 000 000
000 000 000
000 000 000
000 000 000
000 000 000
000 000 000
000 000 000
000 000 000
000 000 000
50 126 100
000 000 000
000 000 000
000 000 000
000 000 000
000 000 000
255 255 255
000 000 000
000 000 000
000 000 000
000 000 000
000 000 000
000 000 000
000 000 000
255 255 255
000 000 000
0 0 255
255 255 255
000 000 000
000 000 000
50 126 100
000 000 000
000 000 000
000 000 000
000 000 000
000 000 000
000 000 000
000 000 000
000 000 000
000 000 000
000 000 000
000 000 000
000 000 000
000 000 000
000 000 000
000 000 000
000 000 000
000 000 000
000 000 000
000 000 000
000 000 000
000 000 000
000 000 000
000 000 000
000 000 000
000 000 000
000 000 000
000 000 000
000 000 000
000 000 000
000 000 000
000 000 000
000 000 000
000 000 000
000 000 000
000 000 000
000 000 000
000 000 000
000 000 000
000 000 000
000 000 000
000 000 000
000 000 000
000 000 000
50 126 100
000 000 000
000 000 000
000 000 000
000 000 000
000 000 000
000 000 000
255 255 255
000 000 000
000 000 000
000 000 000
000 000 000
000 000 000
000 000 000
255 255 255
255 255 255
255 255 255
255 255 255
000 000 000
000 000 000
50 126 100
000 000 000
000 000 000
000 000 000
000 000 000
000 000 000
000 000 000
000 000 000
000 000 000
000 000 000
000 000 000
000 000 000
000 000 000
000 000 000
000 000 000
000 000 000
000 000 000
000 000 000
000 000 000
000 000 000
000 000 000
000 000 000
000 000 000
000 000 000
000 000 000
000 000 000
000 000 000
000 000 000
000 000 000
000 000 000
000 000 000
000 000 000
000 000 000
000 000 000
000 000 000
000 000 000
000 000 000
000 000 000
000 000 000
000 000 000
000 000 000
000 000 000
000 000 000
000 000 000
50 126 100
000 000 000
000 000 000
000 000 000
000 000 000
000 000 000
000 000 000
000 000 000
255 255 255
000 000 000
000 000 000
000 000 000
000 000 000
000 000 000
000 000 000
000 000 000
000 000 000
000 000 000
000 000 000
000 000 000
50 126 100
000 000 000
000 000 000
000 000 000
000 000 000
000 000 000
000 000 000
000 000 000
000 000 000
000 000 000
000 000 000
000 000 000
000 000 000
000 000 000
000 000 000
000 000 000
000 000 000
000 000 000
000 000 000
000 000 000
000 000 000
000 000 000
000 000 000
000 000 000
000 000 000
000 000 000
000 000 000
000 000 000
000 000 000
000 000 000
000 000 000
000 000 000
000 000 000
000 000 000
000 000 000
000 000 000
000 000 000
000 000 000
000 000 000
000 000 000
000 000 000
000 000 000
000 000 000
000 000 000
50 126 100
000 000 000
000 000 000
000 000 000
000 000 000
000 000 000
000 000 000
000 000 000
000 000 000
255 255 255
000 000 000
000 000 000
000 000 000
000 000 000
000 000 000
000 000 000
000 000 000
000 000 000
000 000 000
000 000 000
50 126 100
000 000 000
000 000 000
000 000 000
000 000 000
000 000 000
000 000 000
000 000 000
000 000 000
000 000 000
000 000 000
000 000 000
000 000 000
000 000 000
000 000 000
000 000 000
000 000 000
000 000 000
000 000 000
000 000 000
000 000 000
000 000 000
000 000 000
000 000 000
000 000 000
000 000 000
000 000 000
000 000 000
000 000 000
000 000 000
000 000 000
000 000 000
000 000 000
000 000 000
000 000 000
000 000 000
000 000 000
000 000 000
000 000 000
000 000 000
000 000 000
000 000 000
000 000 000
000 000 000
50 126 100
000 000 000
000 000 000
000 000 000
000 000 000
000 000 000
000 000 000
000 000 000
000 000 000
255 255 255
000 000 000
000 000 000
000 000 000
000 000 000
000 000 000
000 000 000
000 000 000
000 000 000
000 000 000
000 000 000
50 126 100
000 000 000
000 000 000
000 000 000
000 000 000
000 000 000
000 000 000
000 000 000
000 000 000
000 000 000
000 000 000
000 000 000
000 000 000
000 000 000
000 000 000
000 000 000
000 000 000
000 000 000
000 000 000
000 000 000
000 000 000
000 000 000
000 000 000
000 000 000
000 000 000
000 000 000
000 000 000
000 000 000
000 000 000
000 000 000
000 000 000
000 000 000
000 000 000
000 000 000
000 000 000
000 000 000
000 000 000
000 000 000
000 000 000
000 000 000
000 000 000
000 000 000
000 000 000
000 000 000
50 126 100
000 000 000
000 000 000
000 000 000
000 000 000
000 000 000
000 000 000
000 000 000
000 000 000
000 000 000
255 255 255
000 000 000
000 000 000
000 000 000
000 000 000
000 000 000
000 000 000
000 000 000
000 000 000
000 000 000
50 126 100
000 000 000
000 000 000
000 000 000
000 000 000
000 000 000
000 000 000
000 000 000
000 000 000
000 000 000
000 000 000
000 000 000
000 000 000
000 000 000
000 000 000
000 000 000
000 000 000
000 000 000
000 000 000
000 000 000
000 000 000
000 000 000
000 000 000
000 000 000
000 000 000
000 000 000
000 000 000
000 000 000
000 000 000
000 000 000
000 000 000
000 000 000
000 000 000
000 000 000
000 000 000
000 000 000
000 000 000
000 000 000
000 000 000
000 000 000
000 000 000
000 000 000
000 000 000
000 000 000
50 126 100
000 000 000
000 000 000
000 000 000
000 000 000
000 000 000
000 000 000
000 000 000
000 000 000
000 000 000
000 000 000
255 255 255
000 000 000
000 000 000
000 000 000
000 000 000
000 000 000
000 000 000
000 000 000
000 000 000
50 126 100
000 000 000
000 000 000
000 000 000
000 000 000
000 000 000
000 000 000
000 000 000
000 000 000
000 000 000
000 000 000
000 000 000
000 000 000
000 000 000
000 000 000
000 000 000
000 000 000
000 000 000
000 000 000
000 000 000
000 000 000
000 000 000
000 000 000
000 000 000
000 000 000
000 000 000
000 000 000
000 000 000
000 000 000
000 000 000
000 000 000
000 000 000
000 000 000
000 000 000
000 000 000
000 000 000
000 000 000
000 000 000
000 000 000
000 000 000
000 000 000
000 000 000
000 000 000
000 000 000
50 126 100
000 000 000
000 000 000
000 000 000
000 000 000
000 000 000
000 000 000
000 000 000
000 000 000
000 000 000
000 000 000
000 000 000
255 255 255
000 000 000
000 000 000
000 000 000
000 000 000
000 000 000
000 000 000
000 000 000
50 126 100
000 000 000
000 000 000
000 000 000
000 000 000
000 000 000
000 000 000
000 000 000
000 000 000
000 000 000
000 000 000
000 000 000
000 000 000
000 000 000
000 000 000
000 000 000
000 000 000
000 000 000
000 000 000
000 000 000
000 000 000
000 000 000
000 000 000
000 000 000
000 000 000
000 000 000
000 000 000
000 000 000
000 000 000
000 000 000
000 000 000
000 000 000
000 000 000
000 000 000
000 000 000
000 000 000
000 000 000
000 000 000
000 000 000
000 000 000
000 000 000
000 000 000
000 000 000
000 000 000
50 126 100
000 000 000
000 000 000
000 000 000
000 000 000
000 000 000
000 000 000
000 000 000
000 000 000
000 000 000
000 000 000
000 000 000
000 000 000
000 000 000
000 000 000
000 000 000
000 000 000
000 000 000
000 000 000
000 000 000
50 126 100
000 000 000
000 000 000
000 000 000
000 000 000
000 000 000
000 000 000
000 000 000
000 000 000
000 000 000
000 000 000
000 000 000
000 000 000
000 000 000
000 000 000
000 000 000
000 000 000
000 000 000
000 000 000
000 000 000
000 000 000
000 000 000
000 000 000
000 000 000
000 000 000
000 000 000
000 000 000
000 000 000
000 000 000
000 000 000
000 000 000
000 000 000
000 000 000
000 000 000
000 000 000
000 000 000
000 000 000
000 000 000
000 000 000
000 000 000
000 000 000
000 000 000
000 000 000
000 000 000
50 126 100
000 000 000
000 000 000
000 000 000
000 000 000
000 000 000
000 000 000
000 000 000
000 000 000
000 000 000
000 000 000
000 000 000
000 000 000
000 000 000
000 000 000
000 000 000
000 000 000
000 000 000
000 000 000
000 000 000
50 126 100
000 000 000
000 000 000
000 000 000
000 000 000
000 000 000
000 000 000
000 000 000
000 000 000
000 000 000
000 000 000
000 000 000
000 000 000
000 000 000
000 000 000
000 000 000
000 000 000
000 000 000
000 000 000
000 000 000
000 000 000
000 000 000
000 000 000
000 000 000
000 000 000
000 000 000
000 000 000
000 000 000
000 000 000
000 000 000
000 000 000
000 000 000
000 000 000
000 000 000
000 000 000
000 000 000
000 000 000
000 000 000
000 000 000
000 000 000
000 000 000
000 000 000
000 000 000
000 000 000
50 126 100
000 000 000
000 000 000
000 000 000
000 000 000
000 000 000
000 000 000
000 000 000
000 000 000
000 000 000
000 000 000
000 000 000
000 000 000
000 000 000
000 000 000
000 000 000
000 000 000
000 000 000
000 000 000
000 000 000
50 126 100
000 000 000
000 000 000
000 000 000
000 000 000
000 000 000
000 000 000
000 000 000
000 000 000
000 000 000
000 000 000
000 000 000
000 000 000
000 000 000
000 000 000
000 000 000
000 000 000
000 000 000
000 000 000
000 000 000
000 000 000
000 000 000
000 000 000
000 000 000
000 000 000
000 000 000
000 000 000
000 000 000
000 000 000
000 000 000
000 000 000
000 000 000
000 000 000
000 000 000
000 000 000
000 000 000
000 000 000
000 000 000
000 000 000
000 000 000
000 000 000
000 000 000
000 000 000
000 000 000
50 126 100
000 000 000
000 000 000
000 000 000
000 000 000
000 000 000
000 000 000
000 000 000
000 000 000
000 000 000
000 000 000
000 000 000
000 000 000
000 000 000
000 000 000
000 000 000
000 000 000
000 000 000
000 000 000
000 000 000
50 126 100
000 000 000
000 000 000
000 000 000
000 000 000
000 000 000
000 000 000
000 000 000
000 000 000
000 000 000
000 000 000
000 000 000
000 000 000
000 000 000
000 000 000
000 000 000
000 000 000
000 000 000
000 000 000
000 000 000
000 000 000
000 000 000
000 000 000
000 000 000
000 000 000
000 000 000
000 000 000
000 000 000
000 000 000
000 000 000
000 000 000
000 000 000
000 000 000
000 000 000
000 000 000
000 000 000
000 000 000
000 000 000
000 000 000
000 000 000
000 000 000
000 000 000
000 000 000
000 000 000
50 126 100
000 000 000
000 000 000
000 000 000
000 000 000
000 000 000
000 000 000
000 000 000
000 000 000
000 000 000
000 000 000
000 000 000
000 000 000
000 000 000
000 000 000
000 000 000
000 000 000
000 000 000
000 000 000
000 000 000
50 126 100
000 000 000
000 000 000
000 000 000
000 000 000
000 000 000
000 000 000
000 000 000
000 000 000
000 000 000
000 000 000
000 000 000
000 000 000
000 000 000
000 000 000
000 000 000
000 000 000
000 000 000
000 000 000
000 000 000
000 000 000
000 000 000
000 000 000
000 000 000
000 000 000
000 000 000
000 000 000
000 000 000
000 000 000
000 000 000
000 000 000
000 000 000
000 000 000
000 000 000
000 000 000
000 000 000
000 000 000
000 000 000
000 000 000
000 000 000
000 000 000
000 000 000
000 000 000
000 000 000
50 126 100
000 000 000
000 000 000
000 000 000
000 000 000
000 000 000
000 000 000
255 0 255
255 0 255
255 0 255
255 0 255
255 0 255
255 0 255
255 0 255
255 0 255
255 0 255
255 0 255
255 0 255
255 0 255
255 0 255
50 126 100
255 0 255
255 0 255
255 0 255
255 0 255
255 0 255
255 0 255
255 0 255
255 0 255
000 000 000
000 000 000
000 000 000
000 000 000
000 000 000
000 000 000
000 000 000
000 000 000
000 000 000
000 000 000
000 000 000
000 000 000
000 000 000
000 000 000
000 000 000
000 000 000
000 000 000
000 000 000
000 000 000
000 000 000
000 000 000
000 000 000
000 000 000
000 000 000
000 000 000
000 000 000
000 000 000
000 000 000
000 000 000
000 000 000
000 000 000
000 000 000
000 000 000
000 000 000
000 000 000
50 126 100
000 000 000
000 000 000
000 000 000
000 000 000
000 000 000
000 000 000
255 0 255
255 0 255
255 0 255
255 0 255
255 0 255
255 0 255
255 0 255
255 0 255
255 0 255
255 0 255
255 0 255
255 0 255
255 0 255
50 126 100
255 0 255
255 0 255
255 0 255
255 0 255
255 0 255
255 0 255
255 0 255
255 0 255
000 000 000
000 000 000
000 000 000
000 000 000
000 000 000
000 000 000
000 000 000
000 000 000
000 000 000
000 000 000
000 000 000
000 000 000
000 000 000
000 000 000
000 000 000
000 000 000
000 000 000
000 000 000
000 000 000
000 000 000
000 000 000
000 000 000
000 000 000
000 000 000
000 000 000
000 000 000
000 000 000
000 000 000
000 000 000
000 000 000
000 000 000
000 000 000
000 000 000
000 000 000
000 000 000
50 126 100
50 126 100
50 126 100
50 126 100
50 126 100
50 126 100
50 126 100
50 126 100
50 126 100
50 126 100
50 126 100
50 126 100
50 126 100
50 126 100
50 126 100
50 126 100
50 126 100
50 126 100
50 126 100
50 126 100
50 126 100
255 0 255
255 0 255
255 0 255
255 0 255
255 0 255
255 0 255
255 0 255
255 0 255
000 000 000
000 000 000
000 000 000
000 000 000
000 000 000
000 000 000
000 000 000
000 000 000
000 000 000
000 000 000
000 000 000
000 000 000
000 000 000
000 000 000
000 000 000
000 000 000
000 000 000
000 000 000
000 000 000
000 000 000
000 000 000
000 000 000
000 000 000
000 000 000
000 000 000
000 000 000
000 000 000
000 000 000
000 000 000
000 000 000
000 000 000
000 000 000
000 000 000
000 000 000
000 000 000
000 000 000
000 000 000
000 000 000
000 000 000
000 000 000
000 000 000
000 000 000
255 0 255
255 0 255
255 0 255
255 0 255
255 0 255
255 0 255
255 0 255
255 0 255
255 0 255
255 0 255
255 0 255
255 0 255
255 0 255
255 0 255
255 0 255
255 0 255
255 0 255
255 0 255
255 0 255
255 0 255
255 0 255
255 0 255
000 000 000
000 000 000
000 000 000
000 000 000
000 000 000
000 000 000
000 000 000
000 000 000
000 000 000
000 000 000
000 000 000
000 000 000
000 000 000
000 000 000
000 000 000
000 000 000
000 000 000
000 000 000
000 000 000
000 000 000
000 000 000
000 000 000
000 000 000
000 000 000
000 000 000
000 000 000
000 000 000
000 000 000
000 000 000
000 000 000
000 000 000
000 000 000
000 000 000
000 000 000
000 000 000
000 000 000
000 000 000
000 000 000
000 000 000
000 000 000
000 000 000
000 000 000
255 0 255
255 0 255
255 0 255
255 0 255
255 0 255
255 0 255
255 0 255
255 0 255
255 0 255
255 0 255
255 0 255
255 0 255
255 0 255
255 0 255
255 0 255
255 0 255
255 0 255
255 0 255
255 0 255
255 0 255
255 0 255
255 0 255
000 000 000
000 000 000
000 000 000
000 000 000
000 000 000
000 000 000
000 000 000
000 000 000
000 000 000
000 000 000
000 000 000
000 000 000
000 000 000
000 000 000
000 000 000
000 000 000
000 000 000
000 000 000
000 000 000
000 000 000
000 000 000
000 000 000
000 000 000
000 000 000
000 000 000
000 000 000
000 000 000
000 000 000
000 000 000
000 000 000
000 000 000
000 000 000
000 000 000
000 000 000
000 000 000
000 000 000
000 000 000
000 000 000
000 000 000
000 000 000
000 000 000
000 000 000
255 0 255
255 0 255
255 0 255
255 0 255
255 0 255
255 0 255
255 0 255
255 0 255
255 0 255
255 0 255
255 0 255
255 0 255
255 0 255
255 0 255
255 0 255
255 0 255
255 0 255
255 0 255
255 0 255
255 0 255
255 0 255
255 0 255
000 000 000
000 000 000
000 000 000
000 000 000
000 000 000
000 000 000
000 000 000
000 000 000
000 000 000
000 000 000
000 000 000
000 000 000
000 000 000
000 000 000
000 000 000
000 000 000
000 000 000
000 000 000
000 000 000
000 000 000
000 000 000
000 000 000
000 000 000
000 000 000
000 000 000
000 000 000
000 000 000
000 000 000
000 000 000
000 000 000
000 000 000
000 000 000
000 000 000
000 000 000
000 000 000
000 000 000
000 000 000
000 000 000
000 000 000
000 000 000
000 000 000
000 000 000
255 0 255
255 0 255
255 0 255
255 0 255
255 0 255
255 0 255
255 0 255
255 0 255
255 0 255
255 0 255
255 0 255
255 0 255
255 0 255
255 0 255
255 0 255
255 0 255
255 0 255
255 0 255
255 0 255
255 0 255
255 0 255
255 0 255
000 000 000
000 000 000
000 000 000
000 000 000
000 000 000
000 000 000
000 000 000
000 000 000
000 000 000
000 000 000
000 000 000
000 000 000
000 000 000
000 000 000
000 000 000
000 000 000
000 000 000
000 000 000
000 000 000
000 000 000
000 000 000
000 000 000
000 000 000
000 000 000
000 000 000
000 000 000
000 000 000
000 000 000
000 000 000
000 000 000
000 000 000
000 000 000
000 000 000
000 000 000
000 000 000
000 000 000
000 000 000
000 000 000
000 000 000
000 000 000
000 000 000
000 000 000
255 0 255
255 0 255
255 0 255
255 0 255
255 0 255
255 0 255
255 0 255
255 0 255
255 0 255
255 0 255
255 0 255
255 0 255
255 0 255
255 0 255
255 0 255
255 0 255
255 0 255
255 0 255
255 0 255
255 0 255
255 0 255
255 0 255
000 000 000
000 000 000
000 000 000
000 000 000
000 000 000
000 000 000
000 000 000
000 000 000
000 000 000
000 000 000
000 000 000
000 000 000
000 000 000
000 000 000
000 000 000
000 000 000
000 000 000
000 000 000
000 000 000
000 000 000
000 000 000
000 000 000
000 000 000
000 000 000
000 000 000
000 000 000
000 000 000
000 000 000
000 000 000
000 000 000
000 000 000
000 000 000
000 000 000
000 000 000
000 000 000
000 000 000
000 000 000
000 000 000
000 000 000
000 000 000
000 000 000
000 000 000
255 0 255
255 0 255
255 0 255
255 0 255
255 0 255
255 0 255
255 0 255
255 0 255
255 0 255
255 0 255
255 0 255
255 0 255
255 0 255
255 0 255
255 0 255
255 0 255
255 0 255
255 0 255
255 0 255
255 0 255
255 0 255
255 0 255
000 000 000
000 000 000
000 000 000
000 000 000
000 000 000
000 000 000
000 000 000
000 000 000
000 000 000
000 000 000
000 000 000
000 000 000
000 000 000
000 000 000
000 000 000
000 000 000
000 000 000
000 000 000
000 000 000
000 000 000
000 000 000
000 000 000
000 000 000
000 000 000
000 000 000
000 000 000
000 000 000
000 000 000
000 000 000
000 000 000
000 000 000
000 000 000
000 000 000
000 000 000
000 000 000
000 000 000
000 000 000
000 000 000
000 000 000
000 000 000
000 000 000
000 000 000
255 0 255
255 0 255
255 0 255
255 0 255
255 0 255
255 0 255
255 0 255
255 0 255
255 0 255
255 0 255
255 0 255
255 0 255
255 0 255
255 0 255
255 0 255
255 0 255
255 0 255
255 0 255
255 0 255
255 0 255
255 0 255
255 0 255
000 000 000
000 000 000
000 000 000
000 000 000
000 000 000
000 000 000
000 000 000
000 000 000
000 000 000
000 000 000
000 000 000
000 000 000
000 000 000
000 000 000
000 000 000
000 000 000
000 000 000
000 000 000
000 000 000
000 000 000
000 000 000
000 000 000
000 000 000
000 000 000
000 000 000
000 000 000
000 000 000
000 000 000
000 000 000
000 000 000
000 000 000
000 000 000
000 000 000
000 000 000
000 000 000
000 000 000
000 000 000
000 000 000
000 000 000
000 000 000
000 000 000
000 000 000
255 0 255
255 0 255
255 0 255
255 0 255
255 0 255
255 0 255
255 0 255
255 0 255
255 0 255
255 0 255
255 0 255
255 0 255
255 0 255
255 0 255
255 0 255
255 0 255
255 0 255
255 0 255
255 0 255
255 0 255
255 0 255
255 0 255
000 000 000
000 000 000
000 000 000
000 000 000
000 000 000
000 000 000
000 000 000
000 000 000
000 000 000
000 000 000
000 000 000
000 000 000
000 000 000
000 000 000
000 000 000
000 000 000
000 000 000
000 000 000
000 000 000
000 000 000
000 000 000
000 000 000
000 000 000
000 000 000
000 000 000
000 000 000
000 000 000
000 000 000
000 000 000
000 000 000
000 000 000
000 000 000
000 000 000
000 000 000
000 000 000
000 000 000
000 000 000
000 000 000
000 000 000
000 000 000
000 000 000
000 000 000
255 0 255
255 0 255
255 0 255
255 0 255
255 0 255
255 0 255
255 0 255
255 0 255
255 0 255
255 0 255
255 0 255
255 0 255
255 0 255
255 0 255
255 0 255
255 0 255
255 0 255
255 0 255
255 0 255
255 0 255
255 0 255
255 0 255
000 000 000
000 000 000
000 000 000
000 000 000
000 000 000
000 000 000
000 000 000
000 000 000
000 000 000
000 000 000
000 000 000
000 000 000
000 000 000
000 000 000
000 000 000
000 000 000
000 000 000
000 000 000
000 000 000
000 000 000
000 000 000
000 000 000
000 000 000
000 000 000
000 000 000
000 000 000
000 000 000
000 000 000
000 000 000
000 000 000
000 000 000
000 000 000
000 000 000
000 000 000
000 000 000
000 000 000
000 000 000
000 000 000
000 000 000
000 000 000
000 000 000
000 000 000
255 0 255
255 0 255
255 0 255
255 0 255
255 0 255
255 0 255
255 0 255
255 0 255
255 0 255
255 0 255
255 0 255
255 0 255
255 0 255
255 0 255
255 0 255
255 0 255
255 0 255
255 0 255
255 0 255
255 0 255
255 0 255
255 0 255
000 000 000
000 000 000
000 000 000
000 000 000
000 000 000
000 000 000
000 000 000
000 000 000
000 000 000
000 000 000
000 000 000
000 000 000
000 000 000
000 000 000
000 000 000
000 000 000
000 000 000
000 000 000
000 000 000
000 000 000
000 000 000
000 000 000
000 000 000
000 000 000
000 000 000
000 000 000
000 000 000
000 000 000
000 000 000
000 000 000
000 000 000
000 000 000
000 000 000
000 000 000
000 000 000
000 000 000
000 000 000
000 000 000
000 000 000
000 000 000
000 000 000
000 000 000
255 0 255
255 0 255
255 0 255
255 0 255
255 0 255
255 0 255
255 0 255
255 0 255
255 0 255
255 0 255
255 0 255
255 0 255
255 0 255
255 0 255
255 0 255
255 0 255
255 0 255
255 0 255
255 0 255
255 0 255
255 0 255
255 0 255
000 000 000
000 000 000
000 000 000
000 000 000
000 000 000
000 000 000
000 000 000
000 000 000
000 000 000
000 000 000
000 000 000
000 000 000
000 000 000
000 000 000
000 000 000
000 000 000
000 000 000
000 000 000
000 000 000
000 000 000
000 000 000
000 000 000
000 000 000
000 000 000
000 000 000
000 000 000
000 000 000
000 000 000
000 000 000
000 000 000
000 000 000
000 000 000
000 000 000
000 000 000
000 000 000
000 000 000
000 000 000
000 000 000
000 000 000
000 000 000
000 000 000
000 000 000
255 0 255
255 0 255
255 0 255
255 0 255
255 0 255
255 0 255
255 0 255
255 0 255
255 0 255
255 0 255
255 0 255
255 0 255
255 0 255
255 0 255
255 0 255
255 0 255
255 0 255
255 0 255
255 0 255
255 0 255
255 0 255
255 0 255
000 000 000
000 000 000
000 000 000
000 000 000
000 000 000
000 000 000
000 000 000
000 000 000
000 000 000
000 000 000
000 000 000
000 000 000
000 000 000
000 000 000
000 000 000
000 000 000
000 000 000
000 000 000
000 000 000
000 000 000
000 000 000
000 000 000
000 000 000
000 000 000
000 000 000
000 000 000
000 000 000
000 000 000
000 000 000
000 000 000
000 000 000
000 000 000
000 000 000
000 000 000
000 000 000
000 000 000
000 000 000
000 000 000
000 000 000
000 000 000
000 000 000
000 000 000
000 000 000
000 000 000
000 000 000
000 000 000
000 000 000
000 000 000
000 000 000
000 000 000
000 000 000
000 000 000
000 000 000
000 000 000
000 000 000
000 000 000
000 000 000
000 000 000
000 000 000
000 000 000
000 000 000
000 000 000
000 000 000
000 000 000
000 000 000
000 000 000
000 000 000
000 000 000
000 000 000
000 000 000
000 000 000
000 000 000
000 000 000
000 000 000
000 000 000
000 000 000
000 000 000
000 000 000
000 000 000
000 000 000
000 000 000
000 000 000
000 000 000
000 000 000
000 000 000
000 000 000
000 000 000
000 000 000
000 000 000
000 000 000
000 000 000
000 000 000
000 000 000
000 000 000
000 000 000
000 000 000
000 000 000
000 000 000
000 000 000
000 000 000
000 000 000
000 000 000
000 000 000
000 000 000
000 000 000
000 000 000
000 000 000
000 000 000
000 000 000
000 000 000
000 000 000
000 000 000
000 000 000
000 000 000
000 000 000
000 000 000
000 000 000
000 000 000
000 000 000
000 000 000
000 000 000
000 000 000
000 000 000
000 000 000
000 000 000
000 000 000
000 000 000
000 000 000
000 000 000
000 000 000
000 000 000
000 000 000
000 000 000
000 000 000
000 000 000
000 000 000
000 000 000
000 000 000
000 000 000
000 000 000
000 000 000
000 000 000
000 000 000
000 000 000
000 000 000
000 000 000
000 000 000
000 000 000
000 000 000
000 000 000
000 000 000
000 000 000
000 000 000
000 000 000
000 000 000
000 000 000
000 000 000
000 000 000
000 000 000
000 000 000
000 000 000
000 000 000
000 000 000
000 000 000
000 000 000
000 000 000
000 000 000
000 000 000
000 000 000
000 000 000
000 000 000
000 000 000
000 000 000
000 000 000
000 000 000
000 000 000
000 000 000
000 000 000
000 000 000
000 000 000
000 000 000
000 000 000
000 000 000
000 000 000
000 000 000
000 000 000
000 000 000
000 000 000
000 000 000
000 000 000
000 000 000
000 000 000
000 000 000
000 000 000
000 000 000
000 000 000
000 000 000
000 000 000
000 000 000
000 000 000
000 000 000
000 000 000
000 000 000
000 000 000
000 000 000
000 000 000
000 000 000
000 000 000
000 000 000
000 000 000
000 000 000
000 000 000
000 000 000
000 000 000
000 000 000
000 000 000
000 000 000
000 000 000
000 000 000
000 000 000
000 000 000
000 000 000
000 000 000
000 000 000
000 000 000
000 000 000
000 000 000
000 000 000
000 000 000
000 000 000
000 000 000
000 000 000
000 000 000
000 000 000
000 000 000
000 000 000
000 000 000
000 000 000
000 000 000
000 000 000
000 000 000
000 000 000
000 000 000
000 000 000
000 000 000
000 000 000
000 000 000
000 000 000
000 000 000
000 000 000
000 000 000
000 000 000
000 000 000
000 000 000
000 000 000
000 000 000
000 000 000
000 000 000
000 000 000
000 000 000
000 000 000
000 000 000
000 000 000
000 000 000
000 000 000
000 000 000
000 000 000
000 000 000
000 000 000
000 000 000
000 000 000
000 000 000
000 000 000
000 000 000
000 000 000
000 000 000
000 000 000
000 000 000
000 000 000
000 000 000
000 000 000
000 000 000
000 000 000
000 000 000
000 000 000
000 000 000
000 000 000
000 000 000
000 000 000
000 000 000
000 000 000
000 000 000
000 000 000
000 000 000
000 000 000
000 000 000
000 000 000
000 000 000
000 000 000
000 000 000
000 000 000
000 000 000
000 000 000
000 000 000
000 000 000
000 000 000
000 000 000
000 000 000
000 000 000
000 000 000
000 000 000
000 000 000
000 000 000
000 000 000
000 000 000
000 000 000
000 000 000
000 000 000
000 000 000
000 000 000
000 000 000
000 000 000
000 000 000
000 000 000
000 000 000
000 000 000
000 000 000
000 000 000
000 000 000
000 000 000
000 000 000
000 000 000
000 000 000
000 000 000
000 000 000
000 000 000
000 000 000
000 000 000
000 000 000
000 000 000
000 000 000
000 000 000
000 000 000
000 000 000
000 000 000
000 000 000
000 000 000
000 000 000
000 000 000
000 000 000
000 000 000
000 000 000
000 000 000
000 000 000
000 000 000
000 000 000
000 000 000
000 000 000
000 000 000
000 000 000
000 000 000
000 000 000
000 000 000
000 000 000
000 000 000
000 000 000
000 000 000
000 000 000
000 000 000
000 000 000
000 000 000
000 000 000
000 000 000
000 000 000
000 000 000
000 000 000
000 000 000
000 000 000
000 000 000
000 000 000
000 000 000
000 000 000
000 000 000
000 000 000
000 000 000
000 000 000
000 000 000
000 000 000
000 000 000
000 000 000
000 000 000
000 000 000
000 000 000
000 000 000
000 000 000
000 000 000
000 000 000
000 000 000
000 000 000
000 000 000
000 000 000
000 000 000
000 000 000
000 000 000
000 000 000
000 000 000
000 000 000
000 000 000
000 000 000
000 000 000
000 000 000
000 000 000
000 000 000
000 000 000
000 000 000
000 000 000
000 000 000
000 000 000
000 000 000
000 000 000
000 000 000
000 000 000
000 000 000
000 000 000
000 000 000
000 000 000
000 000 000
000 000 000
000 000 000
000 000 000
000 000 000
000 000 000
000 000 000
000 000 000
000 000 000
000 000 000
000 000 000
000 000 000
000 000 000
000 000 000
000 000 000
000 000 000
000 000 000
000 000 000
000 000 000
000 000 000
000 000 000
000 000 000
000 000 000
000 000 000
000 000 000
000 000 000
000 000 000
000 000 000
000 000 000
000 000 000
000 000 000
000 000 000
000 000 000
000 000 000
000 000 000
000 000 000
000 000 000
000 000 000
000 000 000
000 000 000
000 000 000
000 000 000
000 000 000
000 000 000
000 000 000
000 000 000
000 000 000
000 000 000
000 000 000
000 000 000
000 000 000
000 000 000
000 000 000
000 000 000
000 000 000
000 000 000
000 000 000
000 000 000
000 000 000
000 000 000
000 000 000
000 000 000
000 000 000
000 000 000
000 000 000
000 000 000
000 000 000
000 000 000
000 000 000
000 000 000
000 000 000
000 000 000
000 000 000
000 000 000
000 000 000
000 000 000
000 000 000
000 000 000
000 000 000
000 000 000
000 000 000
000 000 000
000 000 000
000 000 000
000 000 000
000 000 000
000 000 000
000 000 000
000 000 000
000 000 000
000 000 000
000 000 000
000 000 000
000 000 000
000 000 000
000 000 000
000 000 000
000 000 000
000 000 000
000 000 000
000 000 000
000 000 000
000 000 000
000 000 000
000 000 000
000 000 000
000 000 000
000 000 000
000 000 000
000 000 000
000 000 000
000 000 000
000 000 000
000 000 000
000 000 000
000 000 000
000 000 000
000 000 000
000 000 000
000 000 000
000 000 000
000 000 000
000 000 000
000 000 000
000 000 000
000 000 000
000 000 000
000 000 000
000 000 000
000 000 000
000 000 000
000 000 000
000 000 000
000 000 000
000 000 000
000 000 000
000 000 000
000 000 000
000 000 000
000 000 000
000 000 000
000 000 000
000 000 000
000 000 000
000 000 000
000 000 000
000 000 000
000 000 000
000 000 000
000 000 000
000 000 000
000 000 000
000 000 000
000 000 000
000 000 000
000 000 000
000 000 000
000 000 000
000 000 000
000 000 000
000 000 000
000 000 000
000 000 000
000 000 000
000 000 000
000 000 000
000 000 000
000 000 000
000 000 000
000 000 000
000 000 000
000 000 000
000 000 000
000 000 000
000 000 000
000 000 000
000 000 000
000 000 000
000 000 000
000 000 000
000 000 000
000 000 000
000 000 000
000 000 000
000 000 000
000 000 000
000 000 000
000 000 000
000 000 000
000 000 000
000 000 000
000 000 000
000 000 000
000 000 000
000 000 000
000 000 000
000 000 000
000 000 000
000 000 000
000 000 000
000 000 000
000 000 000
000 000 000
000 000 000
000 000 000
000 000 000
000 000 000
000 000 000
000 000 000
000 000 000
000 000 000
000 000 000
000 000 000
000 000 000
000 000 000
000 000 000
000 000 000
000 000 000
000 000 000
000 000 000
000 000 000
000 000 000
000 000 000
000 000 000
000 000 000
000 000 000
000 000 000
000 000 000
000 000 000
000 000 000
000 000 000
000 000 000
000 000 000
000 000 000
000 000 000
000 000 000
000 000 000
000 000 000
000 000 000
000 000 000
000 000 000
000 000 000
000 000 000
000 000 000
000 000 000
000 000 000
000 000 000
000 000 000
000 000 000
000 000 000
000 000 000
000 000 000
000 000 000
000 000 000
000 000 000
000 000 000
000 000 000
000 000 000
000 000 000
000 000 000
000 000 000
000 000 000
000 000 000
000 000 000
000 000 000
000 000 000
000 000 000
000 000 000
000 000 000
000 000 000
000 000 000
000 000 000
000 000 000
000 000 000
000 000 000
000 000 000
000 000 000
000 000 000
000 000 000
000 000 000
000 000 000
000 000 000
000 000 000
000 000 000
000 000 000
000 000 000
000 000 000
000 000 000
000 000 000
000 000 000
000 000 000
000 000 000
000 000 000
000 000 000
000 000 000
000 000 000
000 000 000
000 000 000
000 000 000
000 000 000
000 000 000
000 000 000
000 000 000
000 000 000
000 000 000
000 000 000
000 000 000
000 000 000
000 000 000
000 000 000
000 000 000
000 000 000
000 000 000
000 000 000
000 000 000
000 000 000
000 000 000
000 000 000
000 000 000
000 000 000
000 000 000
000 000 000
000 000 000
000 000 000
000 000 000
000 000 000
000 000 000
000 000 000
000 000 000
000 000 000
000 000 000
000 000 000
000 000 000
000 000 000
000 000 000
000 000 000
000 000 000
000 000 000
000 000 000
000 000 000
000 000 000
000 000 000
000 000 000
000 000 000
000 000 000
000 000 000
000 000 000
000 000 000
000 000 000
000 000 000
000 000 000
000 000 000
000 000 000
000 000 000
000 000 000
000 000 000
000 000 000
000 000 000
